/* XPM */
static char * coin2_xpm[] = {
"64 64 7 1",
" 	c #3E8948",
".	c #000000",
"+	c #F77622",
"@	c #FEE761",
"#	c #FFFFFF",
"$	c #FEAE34",
"%	c #A22633",
"                                                                ",
"                                                                ",
"                                                                ",
"                                                                ",
"                                                                ",
"                                                                ",
"                                                                ",
"                                                                ",
"                                                                ",
"                                                                ",
"                                                                ",
"                                                                ",
"                                                                ",
"                                                                ",
"                                                                ",
"                                                                ",
"                                                                ",
"                                                                ",
"                                                                ",
"                                                                ",
"                                                                ",
"                                                                ",
"                                                                ",
"                          .............                         ",
"                         .++@@@@@@###@@.                        ",
"                        .++@+++++++++++@.                       ",
"                        .++@$$$$$$$$$$+@.                       ",
"                        .$$@$$$+@$+#$$+@.                       ",
"                        .%%@$$$+@@@#$$+@.                       ",
"                        .++@$$+@@@@@#$+@.                       ",
"                        .++@$$+@@$+@#$+@.                       ",
"                        .$$@$$+@@$$$$$+@.                       ",
"                        .$$@$$+@@@@@#$+@.                       ",
"                        .%%@$$$$$$+@#$+@.                       ",
"                        .++@$$+@@$+@#$+@.                       ",
"                        .%%@$$+@@@@@#$+@.                       ",
"                        .%%@$$$+@@@#$$+@.                       ",
"                        .++@$$$+@$+#$$+@.                       ",
"                        .++@$$$$$$$$$$+@.                       ",
"                         .++@@@@@@###@@.                        ",
"                          .............                         ",
"                                                                ",
"                                                                ",
"                                                                ",
"                                                                ",
"                                                                ",
"                                                                ",
"                                                                ",
"                                                                ",
"                                                                ",
"                                                                ",
"                                                                ",
"                                                                ",
"                                                                ",
"                                                                ",
"                                                                ",
"                                                                ",
"                                                                ",
"                                                                ",
"                                                                ",
"                                                                ",
"                                                                ",
"                                                                ",
"                                                                "};
