/* XPM */
static char * coin9_xpm[] = {
"64 64 6 1",
" 	c #3E8948",
".	c #000000",
"+	c #FEE761",
"@	c #FFFFFF",
"#	c #F77622",
"$	c #FEAE34",
"                                                                ",
"                                                                ",
"                                                                ",
"                                                                ",
"                                                                ",
"                                                                ",
"                                                                ",
"                                                                ",
"                                                                ",
"                                                                ",
"                                                                ",
"                                                                ",
"                                                                ",
"                                                                ",
"                                                                ",
"                                                                ",
"                                                                ",
"                                                                ",
"                                                                ",
"                                                                ",
"                                                                ",
"                                                                ",
"                                                                ",
"                         ..............                         ",
"                        .+++++++@@@++++.                        ",
"                       .+##############+.                       ",
"                       .+$$$$$$$$$$$$$#+.                       ",
"                       .+$$$$#+$$#@$$$#+.                       ",
"                       .+$$$$#++++@$$$#+.                       ",
"                       .+$$$#++++++@$$#+.                       ",
"                       .+$$$#++$#++@$$#+.                       ",
"                       .+$$$#++$$$$$$$#+.                       ",
"                       .+$$$#++++++@$$#+.                       ",
"                       .+$$$$$$$#++@$$#+.                       ",
"                       .+$$$#++$#++@$$#+.                       ",
"                       .+$$$#++++++@$$#+.                       ",
"                       .+$$$$#++++@$$$#+.                       ",
"                       .+$$$$#+$$#@$$$#+.                       ",
"                       .+$$$$$$$$$$$$$#+.                       ",
"                        .+++++++@@@++++.                        ",
"                         ..............                         ",
"                                                                ",
"                                                                ",
"                                                                ",
"                                                                ",
"                                                                ",
"                                                                ",
"                                                                ",
"                                                                ",
"                                                                ",
"                                                                ",
"                                                                ",
"                                                                ",
"                                                                ",
"                                                                ",
"                                                                ",
"                                                                ",
"                                                                ",
"                                                                ",
"                                                                ",
"                                                                ",
"                                                                ",
"                                                                ",
"                                                                "};
