/* XPM */
static char * coin5_xpm[] = {
"64 64 6 1",
" 	c #3E8948",
".	c #000000",
"+	c #F77622",
"@	c #FFFFFF",
"#	c #FEAE34",
"$	c #A22633",
"                                                                ",
"                                                                ",
"                                                                ",
"                                                                ",
"                                                                ",
"                                                                ",
"                                                                ",
"                                                                ",
"                                                                ",
"                                                                ",
"                                                                ",
"                                                                ",
"                                                                ",
"                                                                ",
"                                                                ",
"                                                                ",
"                                                                ",
"                                                                ",
"                                                                ",
"                                                                ",
"                                                                ",
"                                                                ",
"                                                                ",
"                             ......                             ",
"                            .+++++@.                            ",
"                            .++++++.                            ",
"                            .+++++@.                            ",
"                            .######.                            ",
"                            .$$$$$$.                            ",
"                            .+++++@.                            ",
"                            .+++++@.                            ",
"                            .#####@.                            ",
"                            .#####@.                            ",
"                            .$$$$$@.                            ",
"                            .+++++@.                            ",
"                            .$$$$$@.                            ",
"                            .$$$$$$.                            ",
"                            .+++++@.                            ",
"                            .+++++@.                            ",
"                            .++++++.                            ",
"                             ......                             ",
"                                                                ",
"                                                                ",
"                                                                ",
"                                                                ",
"                                                                ",
"                                                                ",
"                                                                ",
"                                                                ",
"                                                                ",
"                                                                ",
"                                                                ",
"                                                                ",
"                                                                ",
"                                                                ",
"                                                                ",
"                                                                ",
"                                                                ",
"                                                                ",
"                                                                ",
"                                                                ",
"                                                                ",
"                                                                ",
"                                                                "};
