/* XPM */
static char * exit5_xpm[] = {
"64 64 46 1",
" 	c #3E8948",
".	c #1C86CB",
"+	c #2C8AD0",
"@	c #2C8ED4",
"#	c #348AD1",
"$	c #146AA7",
"%	c #1C6EAA",
"&	c #2472AC",
"*	c #248ED6",
"=	c #246EA4",
"-	c #1C76B1",
";	c #2C92DC",
">	c #1C5A84",
",	c #1C5684",
"'	c #245A8A",
")	c #145681",
"!	c #2C8EDC",
"~	c #248AD4",
"{	c #0C5688",
"]	c #2C9EEF",
"^	c #2C9AEC",
"/	c #2476B4",
"(	c #144A74",
"_	c #14466C",
":	c #144A6C",
"<	c #0C3E5C",
"[	c #349AEC",
"}	c #0C3A58",
"|	c #1C527E",
"1	c #143A54",
"2	c #0C2E43",
"3	c #248ACC",
"4	c #0C324C",
"5	c #143A5C",
"6	c #142A3D",
"7	c #042E4B",
"8	c #0C2A44",
"9	c #041E2C",
"0	c #0C2235",
"a	c #041A2B",
"b	c #0C1D2C",
"c	c #3C9EE7",
"d	c #0C2A3C",
"e	c #1C72AC",
"f	c #144674",
"g	c #0C4669",
"                                                                ",
"                                                                ",
"                                  .                             ",
"                                                                ",
"                                   +@                           ",
"                                    #                           ",
"                              $%&&% ++                          ",
"                            %%&&&&&  *+                         ",
"                          =%&&&&&&&% *@                         ",
"                         %&&&&&&&&&&&-;@                        ",
"                        %&&&&&&&&&&&&-**                        ",
"                        &-&&&>,,,>&&&-*;@                       ",
"                       %-**@'>)))),&&&-*!                       ",
"                      ~;*;;;;*{,))),&&-!*                       ",
"                      *]]]]]]]^>)))),&-*;#                      ",
"                    @^]];;;****,)))))&&*;@                      ",
"                    @/*-{{>,,,(____:),%*]*                      ",
"                   ~*--&))))):______<),{^[+                     ",
"                  @;-&&,,)),)______}}))>;]@                     ",
"                  *@-&&))))):____}}}}<|>*]@                     ",
"                 +* &&>)))))____}}}}}}},*]@                     ",
"                 @* &&,))))____<}}}}}}},*]@                     ",
"                 @*%&&,))))____}}}}}}}},*]@                     ",
"                 @ &&&,))))____}}}}1221)*]*%                    ",
"                 + &&&)))))____}}}12222)^]*&                    ",
"                3  &&>)))))____}}}222224^]-%                    ",
"                +  &&,)))):___5}}1222267^]-&                    ",
"                   &&,))))____}}}8222290^*>&%                   ",
"                   &&,))))____}}}88269a0^*>&&                   ",
"                  %&&,,)))____}}}822baa0^*>&&                   ",
"                  &&&>+,))____}}}822aaa0c*&&&                   ",
"                  &&>,*,))____}}}882aaaa0@&&&                   ",
"               3  %&,>*,))____}}}882aaaaa,&&&                   ",
"               #   &>*],))____}}}822aaaa9,&&&                   ",
"               3   &>*],))____}}}2226aa9|,&&& +                 ",
"                   %'*],))____}}}1222d99))>&& @                 ",
"                   &&!],))____}}}1222262)),&% @                 ",
"                   e&!],))____}}}1222222))>% @*                 ",
"                   &-!],))____}}}}}82222)>&& **                 ",
"                   &-*],))_____}}}}}822|,%&-@;*                 ",
"                   &-*^,))_____}}}}}}}})),&-*;@                 ",
"                   %-*],)))____5}}}}}}}))&-*;*                  ",
"                    &*^,)))_____}}}}}}}))&-*;*                  ",
"                    &*],)))_____}}}}}})),&-*;@                  ",
"                    &*],))))____}}}}}}),&-*;*                   ",
"                    &-^>))))_____}}}}}),&-*;@                   ",
"                    %-]*>))))f___g}}})>&-*;*                    ",
"                     &]^>)))))____g5|,&&!;;+                    ",
"                     %*]>))))):____))>@/]^*                     ",
"                      &^>))))))___),>*;^];+                     ",
"                      &;*%,)))),,,>*;]]];+                      ",
"                      +!*&,))),@*;^]]][;@                       ",
"                       **-&>)),*^]]];*;+                        ",
"                       **-&&,),&------+                         ",
"                       **-&&&&&&&&&&&&%                         ",
"                        *!&&&&&&&&&&&%                          ",
"                        @@ &&&&&&&&&=                           ",
"                         @@-%&&%&&%                             ",
"                         @;*    &=                              ",
"                         @;;*@                                  ",
"                          +*;;@                                 ",
"                            @@+                                 ",
"                                                                ",
"                                                                "};
