/* XPM */
static char * exit3_xpm[] = {
"64 64 46 1",
" 	c #3E8948",
".	c #2C88CC",
"+	c #2C8AD4",
"@	c #248ED7",
"#	c #348ED2",
"$	c #2C8ED9",
"%	c #3492DA",
"&	c #246EA8",
"*	c #1C6EAA",
"=	c #2C72A9",
"-	c #2C92DC",
";	c #2472AC",
">	c #2476B4",
",	c #1472B3",
"'	c #1C74B4",
")	c #1C5A84",
"!	c #145B8C",
"~	c #2C9EEC",
"{	c #1C5684",
"]	c #145581",
"^	c #349AED",
"/	c #1C527F",
"(	c #14466C",
"_	c #1C6AA5",
":	c #0C4671",
"<	c #145A83",
"[	c #1C3A58",
"}	c #0C3B5C",
"|	c #349EEC",
"1	c #2C9AE9",
"2	c #1C5D8C",
"3	c #0C3A54",
"4	c #144265",
"5	c #1C72AC",
"6	c #143654",
"7	c #0C2E43",
"8	c #143A54",
"9	c #142A3F",
"0	c #0C2A44",
"a	c #144A6C",
"b	c #041E2C",
"c	c #24527C",
"d	c #2476AC",
"e	c #041A2A",
"f	c #0C1E2C",
"g	c #3496E4",
"                                                                ",
"                                                                ",
"                           .                                    ",
"                           +++@@.                               ",
"                             #@$$+                              ",
"                               #%%@@                            ",
"                                @%%@                            ",
"                           &**==@$%-#                           ",
"                           ;;;;;;>$%@                           ",
"                          &;;;;;;,@$%#                          ",
"                         &;;;;;;;;'$%$;                         ",
"                         ;;;;;;);;;!~~+*                        ",
"                        &;;;{{{{{{{{%~>;                        ",
"                       *;;{{]]]]]]]])~$;*                       ",
"                     &;;;;)))]]]]]]]{^-,;                       ",
"                     ;;;;!@$@)]]]]]])~~$;&                      ",
"                     ;;;!$~~@{/(((]]{!~$;;_                     ",
"                     ;;;$~-${:(((((:])~$;;*                     ",
"                    &;$%~-$<:(((((([}{~$);*                     ",
"                    *;-~-@)]:(((((}[[]~$@;;&                    ",
"                    ;>|-@){](((((}[[[}1$2;;;                    ",
"                    +~|@)]]:((((([[[[341@;;;  .                 ",
"                    @~%){]](((((}[[[3}#%$);5  +                 ",
"                   @~-)]]]]((((([[[677}}{;;*  @#                ",
"                  +%-@){]]]((((}[[879976]*)& #$@                ",
"                  @%$!]]]]](((([[[379990]{{& @$@                ",
"                  $@;{]]]]a(((([[3099bbc]]];;$%@                ",
"                 #$d;{]]]]((((}3[309beeb]]);d$%@                ",
"                 @@;;{]]]]((((}[[099eeef/{;,@%%#                ",
"                 @$;;{]]]](:((}[[099eeef]];;@%@                 ",
"                 @$;;{]]]]((((}[[099eebc]{;;>$@                 ",
"                 +,;;{]]]]((((}[8099eeb]]]{;@%@                 ",
"                 +;;;{]]]](:((}[[099eeb]]]{;$$@                 ",
"                 +;;;{]]]]((((}[[099eeb/]]);$$#                 ",
"                 +;;;{]]]]((((}[8099eef/]{;>$@                  ",
"                 + 5;{]]]]((((}[[7999bb]]];@%@                  ",
"                 # 5;{{]]](:((}[[379997]]];@%@                  ",
"                   5;)+{]]((((}[[379997]]{;$$+                  ",
"                   ;;)@)]]((((}[[379997]];;%$                   ",
"                 . ;;)$@{]::((([[[30777]];>~1                   ",
"                   ;;;@@)]](((([[[[[[33]{@~~+                   ",
"                   &;;)~-){((((}[[[[[[]{{-~1                    ",
"                    ;;)~~)]((((([[[[[[]])~~#                    ",
"                    ;;{-~)]]((((}8[[[}])$~$                     ",
"                    *;)@~!]]]((((}[[[}{-^-+                     ",
"                    &;;;~1)]]((((}[[}/)~~$;                     ",
"                     ;;;~~){]](((((}})~~$,*                     ",
"                     &;;~-{]]]((((((]-~>;;&                     ",
"                      *;~~)]]]]((((])~~,;;                      ",
"                      &;-~)]]]]:(a])1|,;;;                      ",
"                       ;@~$)]]]]]]])$;;;*&                      ",
"                       &>1~@{]]]]]]]);;;                        ",
"                        ;>~$){]]]{);;;;;                        ",
"                        ;d~~;;){{*;;;;;*                        ",
"                        .;,|$,;;;;;;;;*                         ",
"                          *$%$,;;;;;&                           ",
"                           ,-%$;;;;&                            ",
"                           #%$$,;;& .    g                      ",
"                            +%%$*   +                           ",
"                             +%%+ #@%.                          ",
"                              #@%@%@#                           ",
"                                +%+                             ",
"                                 .                              ",
"                                                                "};
