/* XPM */
static char * exit4_xpm[] = {
"64 64 62 1",
" 	c #3E8948",
".	c #2C86CB",
"+	c #2C8ACC",
"@	c #2C8ED4",
"#	c #348ED2",
"$	c #3F8B48",
"%	c #3F8C48",
"&	c #2C8AD4",
"*	c #3E8A48",
"=	c #348ACE",
"-	c #246EA8",
";	c #1C6EAC",
">	c #1C6EA4",
",	c #2472AC",
"'	c #3492DA",
")	c #2474B4",
"!	c #0C5689",
"~	c #1C5684",
"{	c #1C5A84",
"]	c #2476AC",
"^	c #2C92DC",
"/	c #2C9EEC",
"(	c #2C9AE8",
"_	c #3498E4",
":	c #1C567C",
"<	c #14466C",
"[	c #145A83",
"}	c #144974",
"|	c #143A5C",
"1	c #144A6C",
"2	c #0C3A58",
"3	c #0C3E5C",
"4	c #043A60",
"5	c #143A54",
"6	c #042A41",
"7	c #0C2E43",
"8	c #0C2A44",
"9	c #0C314C",
"0	c #042E4B",
"a	c #041E2C",
"b	c #042234",
"c	c #041A2C",
"d	c #142A3D",
"e	c #0C1A2C",
"f	c #0C2233",
"g	c #0C1E2C",
"h	c #1C527C",
"i	c #1C72AC",
"j	c #2C8EDC",
"k	c #1C466B",
"l	c #14567C",
"m	c #145B8C",
"n	c #1C5D8C",
"o	c #2C9EF4",
"p	c #349AEC",
"q	c #349FEC",
"r	c #3E8847",
"s	c #3D8847",
"t	c #3E8848",
"u	c #2C96E5",
"v	c #3D8747",
"w	c #3D8647",
"                                                                ",
"                                .                               ",
"                                 +                              ",
"                                 @#                             ",
"                              $%%%#@&                           ",
"                               *%%%=@                           ",
"                             -;;;>% @#                          ",
"                            -,,,,,-%@'#                         ",
"                          -,,,,,,,,,)'@                         ",
"                         -,,,,,,,,,,,''@                        ",
"                        -,,,,,!,,,,,,@'@                        ",
"                       -,,,,~~~~~~{,,]''&                       ",
"                       ,,,,{~~~~~~~,,,@''                       ",
"                      -,)@''{~~~~~~~,,)'@                       ",
"                      ,''^///({~~~~~~{'/',                      ",
"                      @////^(@{~~~~~~~!/^@                      ",
"                     _//^(''{~:<<<<:[~{//@                      ",
"                    #^^'@!{~~}<<<<<<:~~!/'-                     ",
"                   @''@{{[[[~<<<<<<<|:[{/',                     ",
"                   @)@,[~~~~1<<<<<|223~{/',                     ",
"                  &',,{~~~~~<<<<<22222:{/',                     ",
"                  '',,[~~~~<<<<<222222|~/',-                    ",
"                 #',,,[~~~~<<<<<22222224/',,                    ",
"                 @@ ,,[~~~~<<<<<22256673/',,-                   ",
"                 @',,,[~~~~<<<<222586669/@{,,                   ",
"                ='@],{~~~~:<<<<222566660/@{,,                   ",
"                @@ ,,~~~~~1<<<|2227666ab/@{,,                   ",
"                @' ,,~~~~~<<<<2225866acb/',,,                   ",
"                @& ,,~~~~~<<<<222866deef@@,,,  +                ",
"                +  ,,~~~~~<<<<222866geeeb~{,,  #                ",
"                  -,,~~~~~<<<<222666eeeea~,,,  #                ",
"                  ,,,~~~~~<<<<222866gegah~~,, @@                ",
"                  ,,,{'~~~<<<<222866geea:~~,, '@                ",
"                  -,,{/{~~<<<<222666geea:~~,, '=                ",
"                   ,,{/@~~<<<<2226666gea:~{,,@@                 ",
"                +  i,{/{~~<<<<2225766aaa:~,,)'@                 ",
"                #  i,!/@{~<<<<2225766667:~,,@^@                 ",
"                #  i,'/'{~<<<<2225766667:~,)''@                 ",
"                .  ,]'/'{~<<<<222228667h~~,)''@                 ",
"                   ,,)//{~<<<<<22222867:~~,)''@                 ",
"                   -,,j/{~<<<<<22222222~~~,)'@                  ",
"                    -,^/{~~<<<<|2222222~~,,''@                  ",
"                    ,,j/{~~<<<<<222222:~~,)'@                   ",
"                    ,,'/{~[<<<<<222222~~~,''@                   ",
"                    -,'/{~~:<<<<k22222~{,)/^@                   ",
"                     ,@/{~~~l<<<<22222~,,//&                    ",
"                     ,,/m[~~~~<<<<<k2|:!'/@                     ",
"                     ,,/@~~~~~<<<<<<~{n(o^@                     ",
"                     +]/^{~~~~:<<<<~!////'=                     ",
"                      ,//{~[~[:<<:~{p//^^#                      ",
"                      -'/!~~~[~~:{//q/^'@                       ",
"                       )^@{:~~~~{(/'@)@,                        ",
"                       ='', ~~~~{@n,,,,,>                       ",
"                        @'),,~~~,,,,,,,-                        ",
"                        @'',,,,,,,,,,,-                         ",
"                        @'',,,,,,,,,,-                          ",
"      rs                 @/),,,,,,,,-                           ",
"    ttts                 #/p -,,,,,-                            ",
"     tts                  @/u -,                                ",
"     tts                   @/u                                  ",
"        svvw                @(pp                                ",
"        v                     &/@@+                             ",
"                               #@=                              ",
"                                                                "};
