/* XPM */
static char * exit2_xpm[] = {
"64 64 46 1",
" 	c #3E8948",
".	c #2C86CA",
"+	c #2C8ACC",
"@	c #2C8ED4",
"#	c #2492DB",
"$	c #2C8AD4",
"%	c #246EA9",
"&	c #2472AC",
"*	c #246AA5",
"=	c #1C6EAA",
"-	c #1472B3",
";	c #2476B4",
">	c #249AEB",
",	c #1C5A84",
"'	c #245687",
")	c #145B8C",
"!	c #2C9DEC",
"~	c #1C5684",
"{	c #1C567C",
"]	c #0C4671",
"^	c #1C5D8C",
"/	c #2C96E5",
"(	c #14466C",
"_	c #2C92DC",
":	c #2476AC",
"<	c #143A5C",
"[	c #1C466B",
"}	c #0C3E5B",
"|	c #0C3A58",
"1	c #3CA2EF",
"2	c #349EEC",
"3	c #14425C",
"4	c #143654",
"5	c #0C2E43",
"6	c #1C527C",
"7	c #145684",
"8	c #0C2A44",
"9	c #042E45",
"0	c #143A54",
"a	c #0C2A3C",
"b	c #0C1D2C",
"c	c #041E2C",
"d	c #041A29",
"e	c #1C72AC",
"f	c #14567C",
"g	c #1C74B4",
"                                                                ",
"                                                                ",
"                                                                ",
"                              .                                 ",
"                         +@@@@#@@$                              ",
"                            $@@###@                             ",
"                               @##@                             ",
"                             %&@###@&                           ",
"                          *=&&&&-@##@                           ",
"                         %&&&&&&&;###=                          ",
"                        %&&&&&&&&&>##&%                         ",
"                        &&&&&,'&&,)!#&&%                        ",
"                       %&&&~~~~~~~,>!-&&                        ",
"                       &&&,~~~~~~~~'!!-&=                       ",
"                       &&&~~~~~~{{~~,!#&&%                      ",
"                      %&&~,,~~~~]]~~~!>^&&                      ",
"                     %&&)'/>~~~{(]~~~_!#&&                      ",
"                    *&&:@#!_~{](((]~~#!#&&*                     ",
"                    &&&#_!#,~](((((<{#!#&&&                     ",
"                    &&:#!_'~~(((([}|{,!#&&&  $                  ",
"                    =&#11@~~](((||||<~!@'&&  @                  ",
"                   %&-!2#'~~((((|||||3>'~&&% @                  ",
"                   &-#!#'~~]((((|||||}@,~~&& @                  ",
"                   &@!_,~~~](((<|||455~~~~&&@@                  ",
"                   &!2@~~~~((((||||555567~,&#@                  ",
"                   -!#,~~~{((((|||855559~~%&@#+                 ",
"                   @2#~~~~]](((||0555abc~~&&@#@                 ",
"                  @_!'~~~~((((}||885addc{~&&##@                 ",
"                  @#&~~~~~]]((|||855cddb{~&&##$                 ",
"                 $#@&~~~~~](((|||855dddc{~~&#@                  ",
"                 @#-&~~~~~](((|||855dddb{~,&@@                  ",
"                 @#&&~~~~~](((|||855dddc{~&-#@                  ",
"                $##&&~~~~~]]((|||855ddc{~~:@#@                  ",
"                @#:&&~~~~~](((|||855ddc{~~&@#@                  ",
"                @#&&&~~~~~](((|||855ddc{~~&@#@                  ",
"                @# e&~~~~~]]((|||555abc{~~&#@                   ",
"                $# e&~~~~~]]((|||055555{~~-#@                   ",
"                 @ e&~~~~~]]((|||055555{~,>#$                   ",
"                 @ e&~~~~~](((|||055559{~'!@                    ",
"                 @ %&~~~~~](((|||05555{~~@!@                    ",
"                 $  =&~@,~~](((|||||||~~~!2@                    ",
"                 @  =&~#!'~((((|||||||~~,!_@                    ",
"                 @  =&~#!,~((((|||||||~,!!#=                    ",
"                 +  &&~#!)~f((((|||||{~'!@&                     ",
"                    %&,@2@~7((((||||}~)>2-&                     ",
"                     &&,>!'~(((([|||6'!2;&&                     ",
"                     &&&_!,~~((((((}~!1!&&&                     ",
"                     %&&#!,~~(((((({~!!-&&%                     ",
"                      =&;!'~~~](((]~,/^&&%                      ",
"                      %&-!!~~~{](({~~)&&&                       ",
"                       &:#!,~~~~{~~~~&&&&                       ",
"                       &&;!#,~~~~~~~,&&&%                       ",
"                       =&:#!@,~~~,&&&&&&                        ",
"                        %&:!#,~~~=&&&&&=                        ",
"                         =&;>:&&&&&&&%                          ",
"                         %&&#>#-&&&&&                           ",
"                          *=&###&&&&%     _                     ",
"                             g##---& @@$                        ",
"                             $######@##@                        ",
"                              $@#####@@                         ",
"                                $#@@$                           ",
"                                 .                              ",
"                                                                ",
"                                                                "};
