/* XPM */
static char * exit7_xpm[] = {
"64 64 52 1",
" 	c #3E8948",
".	c #2C8ACC",
"+	c #1C6EA9",
"@	c #2472AC",
"#	c #348AC9",
"$	c #248ED3",
"%	c #2C92DC",
"&	c #2C8ED4",
"*	c #2C8EDC",
"=	c #1C76B0",
"-	c #2C9EEF",
";	c #349EEF",
">	c #2476B4",
",	c #1C5684",
"'	c #1C5A84",
")	c #2C8AD5",
"!	c #145683",
"~	c #0C5689",
"{	c #1C5A8C",
"]	c #2C9AEC",
"^	c #248AD4",
"/	c #349AEC",
"(	c #2C86CC",
"_	c #14527E",
":	c #144A74",
"<	c #144A6C",
"[	c #24567F",
"}	c #1C466D",
"|	c #14466C",
"1	c #0C3A58",
"2	c #0C3E5B",
"3	c #1C72AC",
"4	c #2C92D4",
"5	c #0C2A44",
"6	c #0C2E43",
"7	c #143A54",
"8	c #0C2A3C",
"9	c #041E2C",
"0	c #0C1A2B",
"a	c #0C1E2C",
"b	c #3C9EEC",
"c	c #041A29",
"d	c #0C2235",
"e	c #2C9AE4",
"f	c #0C314C",
"g	c #3498E4",
"h	c #0C5282",
"i	c #0C466B",
"j	c #143A5C",
"k	c #1C5E8C",
"l	c #146EAB",
"m	c #3E8848",
"                                                                ",
"                                                                ",
"                                                                ",
"                                                                ",
"                                                                ",
"                                       .                        ",
"                             +@@@@+    .                        ",
"                         # ++@@@@@@+                            ",
"                        $%&*===@@@@@@+                          ",
"                       &%--;%%&=@@@@@+  $                       ",
"                      $&>&%---%=,'@@@@+ .                       ",
"                     $&=@>)*%;;%'!'+@@@+ .                      ",
"                    .& @@@@~{&]-&'!'@@@@ &$                     ",
"                   &^ +@@@,!!,{/]'!!'@@@ &&                     ",
"                   .  @@@',!!!'&]&,!!@@@@&&                     ",
"                  (   @@@!!!!!_::$:<[,@@@>&                     ",
"                      @@'!!!![}||:||!!@@@&%.                    ",
"                      @@,!!!!<||||112!,+@>%&                    ",
"                     3@,[!!!!|||111112[,@=%&                    ",
"                    3@@!!!!![|||111111_!@@%&                    ",
"                    @@'!!!!!}||21111112!@@4&                    ",
"               (    @@!!!!!_|||11111111['@4&                    ",
"               $    @@!!!![||||11111111!!=%&                    ",
"               .    +~!,!!!||||11115666[!'*&                    ",
"                   +@!!&,!!}}||11176666_[,&&                    ",
"                   @@!']'!_|||2111566685[,&%+                   ",
"                   +'']]'!|}||1111566599[!*]@                   ",
"                   @@']'!!}}||111756890a['%]@                   ",
"                   @=&-,!!}}||111566890a!&b%@                   ",
"                  +@=]-,!!}}||111566000a!%-%@                   ",
"                  @@>]&,!!}}||1115660c0a!%-%@                   ",
"                  3=4]~!!!}}||11155600ca!%-%@                   ",
"                   @%-'!!!}}||1115660c0a[--*@                   ",
"                   @/b'!!!}}||111566c00a[--=@                   ",
"                   @-]'!!!}}||11156689ca'-%=@                   ",
"                  +=b%,!!!}}||111566699de-&=@                   ",
"                  $=]%,!!!}}||111566688f]/{@@                   ",
"                   @-%'!!!}}||11116666fg]*=@@                   ",
"                   &-%'!!!}}||111166566f''@@@                   ",
"                   &-%,!!!}}||1111715666['@@+                   ",
"                   &%*'!!!|}||1111111111!@@@                    ",
"                   &%*'!!!|}|||111111112!@@@                    ",
"                   &%*'!!!}||||11111111h!@@+                    ",
"                   &%*'!!!!||||21111111!!@@                     ",
"                   &%%@!!!!}||||111112[!@@@  .                  ",
"                   &%%@!!!![}|||11111!!!@@+ $&                  ",
"                    &%=@!!!![||||i112!!'@@ $%$                  ",
"                    &%@@,!!!!}||||ij[!!@@=&%&                   ",
"                    &%@@+,!!![||||}!!!'@=&%%&                   ",
"                    &%=@@,!!,!:}|:!!!,@@=%%&&                   ",
"                    &*=@=@,!]]{!,!!!,@==*%&                     ",
"                    &%*==@,,*-/{&{!@@=&%%%&                     ",
"                    $%&@@@@,{*-]%&k&=*%b%%$                     ",
"                     $  @@@@@=]%--]-;--b%$                      ",
"                     && +@@@@@==%%--;-%%&                       ",
"                     $&   +@@@@@=&%%&%&$                        ",
"                      &$   @@@@@@=&$ .                          ",
"                      $$   +@@@@@@l                             ",
"                        .      +                                ",
"                        .                                       ",
"                    m                                           ",
"                                                                ",
"                                                                ",
"                                                                "};
