/* XPM */
static char * exit1_xpm[] = {
"64 64 49 1",
" 	c #3E8948",
".	c #3D8747",
"+	c #3E8848",
"@	c #2C8AD4",
"#	c #2C8ED4",
"$	c #248ED3",
"%	c #2C92DB",
"&	c #3492D9",
"*	c #348ED2",
"=	c #2472AC",
"-	c #246EA8",
";	c #1472B2",
">	c #2C9EEC",
",	c #145A86",
"'	c #1C5684",
")	c #1C5D8C",
"!	c #2C9AEC",
"~	c #2476AC",
"{	c #0C4A73",
"]	c #2C86C9",
"^	c #1C5A84",
"/	c #0C4671",
"(	c #14466C",
"_	c #1C6EA4",
":	c #2C72AA",
"<	c #143A5C",
"[	c #0C3A58",
"}	c #0C3E5B",
"|	c #2C8ACC",
"1	c #249AE7",
"2	c #1C567C",
"3	c #0C2E43",
"4	c #042E46",
"5	c #0C2A44",
"6	c #143A54",
"7	c #142A3D",
"8	c #0C2231",
"9	c #14527C",
"0	c #041A2C",
"a	c #041E2D",
"b	c #0C1A2C",
"c	c #0C1E2C",
"d	c #2476B4",
"e	c #0C2A3C",
"f	c #0C3654",
"g	c #1C466B",
"h	c #145684",
"i	c #2C96E4",
"j	c #349AE5",
"                                                                ",
"                       .                                        ",
"                                  +                             ",
"                                                                ",
"                         @######                                ",
"                        $%%%%&&%$                               ",
"                        *###&&%%%#=                             ",
"                            =&&&%&&-                            ",
"                           -==;&&%&=-                           ",
"                         -======&>>;=-                          ",
"                        -=======,#>&;==-                        ",
"                       -=======,')!>&;==                        ",
"                       =====''''',&>>~==-                       ",
"                       ====''''''',&>&===                       ",
"                      -===''''''''',>&,==-                      ",
"                      ===,'''''''{''>>)===                      ",
"                  ]   ==,^^''''//(//#>&===                      ",
"                     _==,#&'''/((((({>&)==-                     ",
"                     :=&&>>^'/((((<[}!,'=== |                   ",
"                    -=;%>1)''((((}[[}!,''=: *                   ",
"                    ==#>!)''/((([[[[}$'''^- ##                  ",
"                   -=;%>,'''(((([[[[[}}2'^- #&                  ",
"                   ==&>>,''/(((([[[[[[[''== #&                  ",
"                   ==&>&^''/(((<[[[3334''===&&                  ",
"                   ==&>,''2(((([[[53333'''==&&                  ",
"                  _=;>#'''/(((([[6333332''==&&                  ",
"                   =&>,'''//((([[3333789''==&&                  ",
"                   =>>^'''/(((}[[553700a2'=;&&                  ",
"                   &>!^'''/((([[[553a0ba2';&&&                  ",
"                   >>)''''/((([[[533cbba2'~&%#                  ",
"                  *>&^''''/((([[[533cbba2'~&#                   ",
"                  &>d'''''/((([[[533cbba2'~##                   ",
"                  &>='''''(/(([[[533cba2''~##                   ",
"                  &&='''''/((([[[533bba2''~&#                   ",
"                 *&;='''''/((([[[333b0a2'^#&#                   ",
"                 $&=='''''//(([[[633eca2'^&&#                   ",
"                  #~='''''/((([[[[333732'^&#                    ",
"                 $&~='''''//(([[[6333332'&>#                    ",
"                 #&~='''''//(([[[6333332'>>;_                   ",
"                 #&~='''''/((([[[[f33332'>%=                    ",
"                 #&;==''''(((([[[[[[[[['^>;=                    ",
"                 #&===''''((((g[[[[[[[[^>>;=                    ",
"                 *# -='#,,2/((([[[[[[[2,>;==                    ",
"                  # -='&!!,/((([[[[[[[^1>~=-                    ",
"                  #  :^#%>,h(((([[[[[},!d==                     ",
"                  #  ==,&>,h((((g[[[['!>;==                     ",
"                  #  ==,#>>'(((((((<['$)==-                     ",
"                  #  ==^,!>'2((((((([},==:                      ",
"                  |  -==,&>^'2((((((2'====                      ",
"                      -=,d>#''/((/2'''====                      ",
"                       ===&>,'2/2'''^====-                      ",
"                       -==&>!)'''''=====                        ",
"                        ==;%>&,''''====-                        ",
"                        -==&%>#,':=====     i                   ",
"                         -==;&>;======-    j!                   ",
"                          -==;%&&;===- |                        ",
"                           ==;&%%&;=  *&|                       ",
"                           -==#&%%&&##&$                        ",
"                               *%%&%%%$                         ",
"                                #####$                          ",
"                                                                ",
"                                                                ",
"                                                                ",
"                                                                "};
