/* XPM */
static char * exit9_xpm[] = {
"64 64 51 1",
" 	c #3E8948",
".	c #3D8847",
"+	c #3E8848",
"@	c #3E8847",
"#	c #348ED1",
"$	c #2C8ED4",
"%	c #3492DA",
"&	c #2474B4",
"*	c #2472AC",
"=	c #246EAC",
"-	c #1C6EA4",
";	c #2C9EEC",
">	c #2C92DC",
",	c #1C5A84",
"'	c #1C5684",
")	c #0C5689",
"!	c #249EF0",
"~	c #349EEC",
"{	c #14466C",
"]	c #1C567C",
"^	c #2C8ACC",
"/	c #2486C9",
"(	c #144A6C",
"_	c #349AEC",
":	c #0C3B5C",
"<	c #043656",
"[	c #2C8AD4",
"}	c #2C9AE9",
"|	c #143A54",
"1	c #2476AC",
"2	c #245E8A",
"3	c #0C3A54",
"4	c #2C8EDC",
"5	c #0C2A44",
"6	c #0C2E44",
"7	c #0C2A3C",
"8	c #0C1D2C",
"9	c #041E2C",
"0	c #041A2B",
"a	c #0C1E34",
"b	c #249AEA",
"c	c #1C527C",
"d	c #145A8C",
"e	c #143E64",
"f	c #144265",
"g	c #1C5D8C",
"h	c #2C96E5",
"i	c #1C6EAC",
"j	c #2494E4",
"k	c #246EA3",
"l	c #3D8747",
"                                                                ",
"                                                                ",
"                                     .+                         ",
"                                           @                    ",
"                          #$%$$$                                ",
"                       $$$$$%%%%$                               ",
"                      #$#   &$%%%$*=                            ",
"                      #    -*&$%%%&*-                           ",
"                           ***&%%%$**-                          ",
"                          =*****%;>&**                          ",
"                        =****,'');!%**-                         ",
"                       =****,''''$!~***                         ",
"                       ***''''''')%;&**-                        ",
"                       **,''''''',%;%***=                       ",
"                      -**''''''''',%;)***                       ",
"                      **,'''''''{]'$;$)**-                      ",
"                     -*''''''''{{{{,;$,=**- ^                   ",
"                 /   **',,'''({{{{{($,',*** #                   ",
"                    -**,;_,''{{{{{:<:]''*** [                   ",
"                    ***%!},'{{{{{::||:]'*** [                   ",
"                    **1;;2''{{{{:<3<<:'''** #                   ",
"                    *&$!4,']{{{{<<|<::]''** #                   ",
"                    *$;_,''{{{{:<<|3||:''** [                   ",
"                   =&%;''''{{{{:<335556''***%$                  ",
"                   *&;;''''{{{{:|355556]''**%$                  ",
"                   *&;2''''{{{{:|355575]''**%$                  ",
"                   *;;'''']{{{:3|355589]''**%$                  ",
"                  =&;%''''{{{{:3|655009]''**%$                  ",
"                  =&_)''''{{{{:3<555000a]'**%%                  ",
"                   b;,''''{{{{:<|5550008]'*&%$                  ",
"                  #!>,''''{{{{:<|5550008]'*$%$                  ",
"                  %;,'''''{{{{:3|5550008]'*%%%                  ",
"                  4;,'''''{{{{:<|555000a]''%>$                  ",
"                  };,'''''{{{{:33555009c''d}%                   ",
"                  ;!,'''''{{{{:<3555009]''%!$                   ",
"                  %;*'''''{{{{:<<355789]''%;%                   ",
"                  %;*'''''{{{{:<<355555'',;!$                   ",
"                  %;*'''''{{{{:<|<55555''%;%*                   ",
"                  %;1*''''{{{{:<<355556'';;#                    ",
"                  $&**''''{{{{:3<<<6556',;>*                    ",
"                 #%***''''{{{{{:<<<|33:'};&*                    ",
"                 $$ **'''']{{{{:<<<<3:'%!%*-                    ",
"                 $$ **,''''{{{{:<<<<<e$;!$*                     ",
"                 $$ ***'''''{{{{<<<<:#;!%&*                     ",
"                 $$ ***','''{{{{:<3<<f}!%**                     ",
"                 $$ =***$,''{{{{:<<<:],$,**                     ",
"                 $$  ***}},''({{{:<<:'',***                     ",
"                 $$  -**g}2'']{{{{:<:',***-                     ",
"                 $$   ***;;'''{{{{{:]'****                      ",
"                 #$   ***&;,''{{{{]'''***-                      ",
"                  $   ****%;,']{{]''',***    h                  ",
"                  ^   -***&!}2'']'',*****   }}                  ",
"                       =***4;$2*'',****i    j                   ",
"                        =**&;;$*******-   ^                     ",
"                         =**%;>&******   #$                     ",
"                          -*&%;!>%&1%%%%%#                      ",
"                           =*$>;%%%%%%%$$                       ",
"                            k #%>%%%%%#                         ",
"                               $%%%%%$                          ",
"                                 #$$$#                          ",
"                                                                ",
"                     l                                          ",
"                                       .l                       ",
"                              +                                 "};
