/* XPM */
static char * exit8_xpm[] = {
"64 64 51 1",
" 	c #3E8948",
".	c #2C8ED4",
"+	c #3492DA",
"@	c #348ED3",
"#	c #348AD0",
"$	c #1472AF",
"%	c #2472AC",
"&	c #246EAC",
"*	c #2C72A7",
"=	c #2C92DC",
"-	c #2C9EEC",
";	c #2486CB",
">	c #248ACC",
",	c #349EEC",
"'	c #1C6EA4",
")	c #1C5A84",
"!	c #0C5A8B",
"~	c #1C5684",
"{	c #1C72AC",
"]	c #2C8ACC",
"^	c #0C5280",
"/	c #349AEC",
"(	c #14466C",
"_	c #1C4A74",
":	c #1C4E76",
"<	c #245A81",
"[	c #144A6C",
"}	c #0C3A59",
"|	c #143A5C",
"1	c #2C9AE9",
"2	c #0C2E44",
"3	c #042A41",
"4	c #2475B4",
"5	c #0C2A44",
"6	c #1C567C",
"7	c #143A54",
"8	c #0C2233",
"9	c #041E2C",
"0	c #041A2A",
"a	c #2C8AD4",
"b	c #142A3E",
"c	c #0C1E2C",
"d	c #0C1A2B",
"e	c #2C8EDC",
"f	c #1C527C",
"g	c #14425C",
"h	c #144874",
"i	c #0C4668",
"j	c #3498E4",
"k	c #2C96E5",
"l	c #2C9EF4",
"                                                                ",
"                                                                ",
"                                                                ",
"                                                                ",
"                                                                ",
"                         .++@                                   ",
"                       #.++++.$%&%*                             ",
"                      #++.+=-+++%%%*                            ",
"                      ... %+=--+$$%%*     ;                     ",
"                     ..  *%$$+--+.$$%                           ",
"                    >@   %%%%$+,-=$%%%'                         ",
"                         %%%))!.--.$$$%*                        ",
"                        *%%%~~~)+-+!~%%%&                       ",
"                       {%%~~~~~~)--+~%%%%  ]                    ",
"                       %%)~~~~~^~!/=~~%%%* #                    ",
"                      *%%~~~~~^((_/-~~%%%% #                    ",
"                      %%)~~~~^((((:.<~~&%% #                    ",
"                     *%~~~~~^[((((([^~~~%% #                    ",
"                ]    %%~<~~~^(((((}}}^~~%% ..                   ",
"                ]    %%<)~~~(((((}}}}|^~%%%+.                   ",
"                    &%)).)~^((((|}}}}|^~%%$+.                   ",
"                    %%).+)~^((((}}}}}}|^)%$+.                   ",
"                    %%)-1)<((((}}}}}}}}^~%$+.                   ",
"                   *$$.-)~~((((}}}}233}^~%$+.                   ",
"                   %$4+-)~^((((}}}53326~~%$++                   ",
"                   %$+-1)~<((((}}}53332^~%$++#                  ",
"                   %$+-)~~<(((|7}7533386~)%++.                  ",
"                   %$--~~~^(((}7}2533908^~$++a                  ",
"                  &$.-)~~^((((}}}333b90c^~)+.                   ",
"                  %$=-)~~^((((}}}333d00c^~!+.                   ",
"                  &$--)~~~((((}}}333d00c6~@++                   ",
"                   $--)~~~((((}}}333d00c^~)+1                   ",
"                   .-!~~~<((((}}}333d00c6~+=/                   ",
"                   e-)~~~~((((}}}333d008^~+-+                   ",
"                   1-)~~~~((((}}}333009f^~+-.                   ",
"                  .--)~~~<((((}}}533b99^~)--$                   ",
"                  +--)~~~~((((}}}753333^~)--$                   ",
"                  +--)~~~~((((}}}}533356~+-+&                   ",
"                  +-+)~~~^((((}}}}72332~.--%                    ",
"                  +-=%~~~^((((}}}}}}532)+-+%                    ",
"                  .--$~~~~((((}}}}}}}}g.--$%                    ",
"                   +1$~~~^((((}}}}}}}|@-,.$%                    ",
"                   .$%%~~<h((((}}}}}}}~).)%%                    ",
"                   .$%%~~~^((((}}}}}}}^~)%$%                    ",
"                   .$%%~~~<(((((}}}}}}^~~%%*                    ",
"                   .$%%%~~~^((((i}}}}}^~%%%                     ",
"                   ..$%%~~~~h((((|}}}^~~%%%                     ",
"                   ..$%%)~)~^(((((}}}<~)%%%                     ",
"                   a *$%%).!^(((((||^~)%%$&  j                  ",
"                   a  %%%!/-)^h((h^^~~%%$'   k                  ",
"                   a  *%$%!-1)6(^<~~~)%$$                       ",
"                   .a  &$%%4-!)~~~~~~%%%{  ]                    ",
"                   .#   %%%$-+.!~*)%%%%% @..                    ",
"                   .    %%%$4--+)$%$$%$..+.a                    ",
"                   #    *%%%$=---+4.4$+++.                      ",
"                         '%%$$+,l--=++++.                       ",
"                           '%%$+=---=++.                        ",
"                            &%%.+===++.#                        ",
"                             '  ..++.a                          ",
"                                                                ",
"                                                                ",
"                                                                ",
"                                                                ",
"                                                                "};
