/* XPM */
static char * exit6_xpm[] = {
"64 64 50 1",
" 	c #3E8948",
".	c #3C8445",
"+	c #3C8546",
"@	c #2C8ACC",
"#	c #348ACE",
"$	c #246EA9",
"%	c #1C6EAC",
"&	c #348ED2",
"*	c #1C6EA4",
"=	c #2472AC",
"-	c #2C8ED4",
";	c #2C8AD4",
">	c #1472B3",
",	c #1C5A84",
"'	c #2C92DB",
")	c #2C9EEC",
"!	c #145B8C",
"~	c #1C5684",
"{	c #0C5689",
"]	c #2476AC",
"^	c #349AE5",
"/	c #14466C",
"(	c #1C567C",
"_	c #144A6C",
":	c #144974",
"<	c #143A5C",
"[	c #2475B4",
"}	c #0C3A58",
"|	c #0C3E5B",
"1	c #1C527C",
"2	c #245A85",
"3	c #2C86CA",
"4	c #143A54",
"5	c #042A40",
"6	c #0C2E43",
"7	c #0C2A44",
"8	c #041E2C",
"9	c #1C72AC",
"0	c #0C2A3C",
"a	c #041A2B",
"b	c #042234",
"c	c #349FEC",
"d	c #0C1D2C",
"e	c #2C9EF4",
"f	c #0C2235",
"g	c #2C9AEC",
"h	c #0C263B",
"i	c #0C466A",
"j	c #1C4666",
"k	c #248ACC",
"        .                                                       ",
"        +                                                       ",
"                                    @                           ",
"                                    #                           ",
"                                                                ",
"                                     #                          ",
"                            $$$%%$   &&                         ",
"                          *$======*   &                         ",
"                          $=========$ -;                        ",
"                         $===========  --                       ",
"                        =-=>-===,$===$ -'                       ",
"                       ;''')'!~~~,====='-                       ",
"                     #-')))))-{~~~,====-'&                      ",
"                     -'''''')))'~~~~===>'-                      ",
"                    ---]=,~,-'^)~~~~~===''&                     ",
"                    ->>=,~~~,~{-~//(~~==''-                     ",
"                   &-===~~~~~_/:///_(~==-'-                     ",
"                  ;- ==~~~~~~///////<~~$['-                     ",
"                  - $==~~~~~/////}}}}|(,-'-                     ",
"                  # $==~~~~~////}}}}}}1~2'-                     ",
"                 3   %,~~~~////<}}}}}}|(~')=                    ",
"                    $=~~~~~////}}}}}}}}(~')-                    ",
"                    ==~~~~(////}}}}}}}}(~')-                    ",
"                   $=~~~~~/////}}}}4556}~')-                    ",
"                   ==~~~~~/////}}}465556~')-                    ",
"               @   ==~~~~~////|}}}755556~')-                    ",
"               &   ==~~~~~////}}}}755556(')-                    ",
"               &   ==~~~~~////}}}4655588~))'9                   ",
"               ;   $,~-2~~////}}}55508ab-c)[=                   ",
"               &  $=~2'-~~////}}}755daab-e)>=                   ",
"               #  ==2-',~~////}}}555aaafgc'==                   ",
"                  9=,-'~~~////}}}755aaaf)c'==                   ",
"                   ==')~~~////}}}555aaaf^'2==                   ",
"                   ==')~~~////}}}555aaaah-===                   ",
"                   ==')~~~////}}}5555aa81,===                   ",
"                  *==')~~~////}}}4655588(~===                   ",
"                   9>')~~~////}}}4655555(~==$                   ",
"                   =-')~~~////|}}4655556(~==                    ",
"                   =-')~~~////i}}}}65556~~2$  ;                 ",
"                   =]')~~~/////}}}}44756~~==  ;                 ",
"                   =>))~~~/////}}}}}}}}}~~== --                 ",
"                   =>))~~~:////}}}}}}}}(~===-'&                 ",
"                   #[))~~~~////|}}}}}}}~~==['-                  ",
"                    =))~~~~/////}}}}}}(~~=>-''                  ",
"                    =))~~~~(////}}}}}}~~~=-''-                  ",
"                    =)'~~~~~////}}}}}}~~==>'-                   ",
"                     -)~~~~~:////j}}}<~,=>-'-                   ",
"                     =),~~~~~/////i<(~,==-'';                   ",
"                     &)-=~~~~://///(~==>'''-                    ",
"                     -)>=~~~~(///(~,~=]'')-                     ",
"                     -''==~~~~~,,~2-2'[)))&                     ",
"                     #''===~~,-))'''')))'&                      ",
"                      -'===,~,-')))))))'-                       ",
"                      -'>====~,=[')))'';                        ",
"                       ''=========]=>-&                         ",
"                       '- $=========$                           ",
"                       '-  $========                            ",
"                       -'#  $======$                            ",
"                        -'-                                     ",
"                         &'-                                    ",
"                          #---                                  ",
"                             k                                  ",
"                                                                ",
"                                                                "};
