/* XPM */
static char * wall_xpm[] = {
"64 64 8 1",
" 	c None",
".	c #000000",
"+	c #DBC81D",
"@	c #DAC91F",
"#	c #DBC91E",
"$	c #DBC81E",
"%	c #DAC920",
"&	c #D9C920",
"        ................................................        ",
"        ................................................        ",
"        ................................................        ",
"        ................................................        ",
"    ....++++++++++++++++++++++++++++++++++++++++++++++++....    ",
"    ....++++++++++++++++++++++++++++++++++++++++++++++++....    ",
"    ....++++++++++++++++++++++++++++++++++++++++++++++++....    ",
"    ....++++++++++++++++++++++++++++++++++++++++++++++++....    ",
"....@####$$$$$$+++++++++++++++++++++++++++++++++++++++++++++....",
"....++++++++++++++++++++++++++++++++++++++++++++++++++++++$$....",
"....++++++++++++++++++++++++++++++++++++++++++++++++++++++++....",
"....++++++++++++++++++++++++++++++++++++++++++++++++++++++++....",
"....++++++++++++++++++++++++++++++++++++++++++++++++++++++++....",
"....++++++++++++++++++++++++++++++++++++++++++++++++++++++++....",
"....++++++++++++++++++++++++++++++++++++++++++++++++++++++++....",
"....++++++++++++++++++++++++++++++++++++++++++++++++++++++++....",
"....++++++++++++++++++++++$$$$$$$$$$$$$$$$$$$$++++++++++++++....",
"....+$$$$$$$$$#################$$$$$$$$$$$$+++++++++++++++++....",
"....@@@@@@@@@@@@@@@@@####$$$$$$+++++++++++++++++++++++++++++....",
"....@@######$$$$$$$$$+++++++++++++++++++++++++++++++++++++++....",
"....$+++++++++++++++++++++++++++++++++++++++++++++++++++++++....",
"....++++++++++++++++++++++++++++++++++++++++++++++++++++++++....",
"....+++++++++++++++++++++++++$$$$$+++++++++++++++++++++$$$$#....",
"....+++++++++$$$$$$$$$$$$$$$$$$$$++++++++++++$$$$$$$$$$$$$$$....",
"....$$$$$$$$$$$$$$$$$$$$$$$$+++++$$$$$$$$$$$###$$$$$$$++++++....",
"....$$#$$$$$$$$$$$$$++++++$$$$$$##########$$$$$$++++++++++++....",
"....$$$$+++++++$$$$$$$$$#######@@@###$$$$+++++++++++++++++++....",
"....$$$$$$$$#######@@@@@@@@@###$$$$+++++++++++++++++++++++++....",
"....#####@@@%&&&&&@@@@###$$$++++++++++++++++++++++++++++++++....",
"....@@###@@#####$$$$++++++++++++++++++++++++++++++++++++++++....",
"....$$$$$$++++++++++++++++++++++++++++++++++++++++++++++++++....",
"....++++++++++++++++++++++++++++++++++++++++++++++++++++++++....",
"....++++++++++++++++++++++++++++++++++++++++++++++++++++++++....",
"....++++++++++++++++++++++++++++++++++++++++++++++++++++++++....",
"....++++++++++++++++++++++++++++++++++++++++++++++++++++++++....",
"....++++++++++++++++++++++++++++++++++++++++++++++++++++++++....",
"....++++++++++++++++++++++++++++++++++++++++++++++++++++++++....",
"....++++++++++++++++++++++++++++++++++++++++++++++++++++++++....",
"....++++++++++++++++++++++++++++++++++++++++++++++++++++++++....",
"....++++++++++++++++++++++++++++++++++++++++++++++++++++++++....",
"....++++++++++++++++++++++++++++++++++++++++++++++++++++++++....",
"....++++++++++++++++++++++++++++++++++++++++++++++++++++++++....",
"....++++++++++++++++++++++++++++++++++++++++++++++++++++++$$....",
"....++++++++++++++++++++++++++++++++++++++++++++++++++$$###@....",
"....++++++++++++++++++++++++++++++++++++++++++++++++$$$$$$$+....",
"....++++++++++++++++++++++++++++++++++++++++++++++++++++++++....",
"....++++++++++++++++++++++++++++++++++++++++++++++++++++++++....",
"....++++++++++++++++++++++++++++++++++++++++++++++++++++++++....",
"....++++++++++++++++++++++++++++++++++++++++++++++++++++++++....",
"....++++++++++++++++++++++++++++++++++++++++++++++++++++++++....",
"....++++++++++++++++++++++++++++++++++++++++++++++++++++++++....",
"....++++++++++++++++++++++++++++++++++++++++++++++++++++++++....",
"....++++++++++++++++++++++++++++++++++++++++++++++++++++++++....",
"....++++++++++++++++++++++++++++++++++++++++++++++++++++++++....",
"....++++++++++++++++++++++++++++++++++++++++++++++++++++++++....",
"....++++++++++++++++++++++++++++++++++++++++++++++++++++++++....",
"    ....++++++++++++++++++++++++++++++++++++++++++++++++....    ",
"    ....++++++++++++++++++++++++++++++++++++++++++++++++....    ",
"    ....++++++++++++++++++++++++++++++++++++++++++++++++....    ",
"    ....++++++++++++++++++++++++++++++++++++++++++++++++....    ",
"        ................................................        ",
"        ................................................        ",
"        ................................................        ",
"        ................................................        "};
