/* XPM */
static char * patrol2_xpm[] = {
"64 64 6 1",
" 	c #3E8948",
".	c #121111",
"+	c #767575",
"@	c #7E7D7D",
"#	c #5E5D5D",
"$	c #666565",
"                                                                ",
"                                                                ",
"                                                                ",
"                                                                ",
"                                                                ",
"                                                                ",
"                                                                ",
"                                                                ",
"                                                                ",
"                                                                ",
"                                                                ",
"                                                                ",
"                                                                ",
"                                                                ",
"                                                                ",
"                                                                ",
"                                                                ",
"                                                                ",
"                             .....                              ",
"                            .+@@@#..                            ",
"                           .+@@@@$$#.                           ",
"                           .@@@@@$$$#.                          ",
"                           .+@@@@$$$$.                          ",
"                            ..@@..$$$.                          ",
"                            ..@@..$$#.                          ",
"                           .+@@@$$$$.                           ",
"                           .@@@@$$$#.                           ",
"                           .@+..$$$.                            ",
"                           .+.++.$#.                            ",
"                          ...@@@$....                           ",
"                          .+@@@@$$$#.                           ",
"                         .+@@@@@$$$$#.                          ",
"                         .@@@@@@$$$$$.                          ",
"                        .+@@.@@@$$.$$#.                         ",
"                        .@@+.@@@$$.#$$.                         ",
"                       .+@@.+@@@$$$.$$#.                        ",
"                       .+@+.@@@@$$$.#$#.                        ",
"                        .+..@@@@$$$..#.                         ",
"                         . .@@@@$$$. .                          ",
"                           .@@@@@$$.                            ",
"                           .@@@.@$$.                            ",
"                           .@@@.@$$.                            ",
"                           .+@@.@$#.                            ",
"                            .@@.@$.                             ",
"                            .++.@#.                             ",
"                             .. ..                              ",
"                                                                ",
"                                                                ",
"                                                                ",
"                                                                ",
"                                                                ",
"                                                                ",
"                                                                ",
"                                                                ",
"                                                                ",
"                                                                ",
"                                                                ",
"                                                                ",
"                                                                ",
"                                                                ",
"                                                                ",
"                                                                ",
"                                                                ",
"                                                                "};
